<?xml version="1.0" encoding="UTF-8" standalone="no"?>
<svg
   xmlns:dc="http://purl.org/dc/elements/1.1/"
   xmlns:cc="http://creativecommons.org/ns#"
   xmlns:rdf="http://www.w3.org/1999/02/22-rdf-syntax-ns#"
   xmlns:svg="http://www.w3.org/2000/svg"
   xmlns="http://www.w3.org/2000/svg"
   xmlns:sodipodi="http://sodipodi.sourceforge.net/DTD/sodipodi-0.dtd"
   xmlns:inkscape="http://www.inkscape.org/namespaces/inkscape"
   width="76.169655mm"
   height="22.489584mm"
   viewBox="0 0 76.169655 22.489584"
   version="1.1"
   id="svg8"
   inkscape:version="1.0 (4035a4fb49, 2020-05-01)"
   sodipodi:docname="logostrasatti.svg">
  <defs
     id="defs2" />
  <sodipodi:namedview
     id="base"
     pagecolor="#ffffff"
     bordercolor="#666666"
     borderopacity="1.0"
     inkscape:pageopacity="0.0"
     inkscape:pageshadow="2"
     inkscape:zoom="1.4142136"
     inkscape:cx="280.88184"
     inkscape:cy="82.070239"
     inkscape:document-units="mm"
     inkscape:current-layer="layer1"
     inkscape:document-rotation="0"
     showgrid="false"
     inkscape:window-width="1920"
     inkscape:window-height="1001"
     inkscape:window-x="-9"
     inkscape:window-y="-9"
     inkscape:window-maximized="1" />
  <metadata
     id="metadata5">
    <rdf:RDF>
      <cc:Work
         rdf:about="">
        <dc:format>image/svg+xml</dc:format>
        <dc:type
           rdf:resource="http://purl.org/dc/dcmitype/StillImage" />
        <dc:title />
      </cc:Work>
    </rdf:RDF>
  </metadata>
  <g
     inkscape:label="Camada 1"
     inkscape:groupmode="layer"
     id="layer1"
     transform="translate(-30.244184,-97.457726)">
    <rect
       style="opacity:1;fill:#ff1616;fill-opacity:1;stroke-width:0.389937;stroke-linecap:round"
       id="rect224"
       width="22.489584"
       height="22.489584"
       x="30.244184"
       y="97.457726" />
    <path
       style="fill:#000000;stroke-width:0.069621"
       d="m 59.195196,107.65895 c -0.955071,-0.24457 -1.474897,-0.79706 -1.762351,-1.87304 l -0.04308,-0.16119 h 1.051512 1.051512 l 0.09977,0.20427 c 0.302138,0.61868 1.595146,0.6562 1.595146,0.0463 0,-0.24808 -0.327836,-0.40404 -1.35207,-0.64314 -1.921573,-0.44861 -2.720144,-1.58947 -2.107188,-3.01041 0.903202,-2.09381 5.42132,-1.54582 5.42132,0.65756 v 0.16633 l -1.031772,-0.002 -1.031778,-0.002 -0.101489,-0.23128 c -0.269348,-0.61384 -1.437999,-0.45895 -1.25075,0.16578 0.06062,0.20213 0.304302,0.30134 1.310157,0.53324 1.66639,0.38422 2.270756,0.93746 2.270756,2.07866 0,1.6211 -1.982608,2.61732 -4.119714,2.07003 z m 6.660886,-0.0211 c -0.804759,-0.30282 -0.894986,-0.59376 -0.929874,-2.99825 l -0.02728,-1.8806 h -0.570112 -0.570105 v -0.82388 -0.82388 h 0.573066 0.573067 l 0.0189,-0.91344 0.0189,-0.913439 h 1.014861 1.014861 l 0.03382,0.895519 0.03381,0.89555 0.625838,0.0207 0.62583,0.0205 v 0.81849 0.8185 l -0.62583,0.0205 -0.625838,0.0206 -0.02129,0.89552 c -0.05072,2.12971 0.0536,2.43582 0.830124,2.43582 h 0.442847 v 0.70441 0.70441 l -0.253714,0.0907 c -0.463681,0.16581 -1.754513,0.173 -2.18195,0.0122 z m 9.10814,0.0272 c -0.762525,-0.22175 -1.158705,-0.82189 -1.157812,-1.7539 7.99e-4,-1.40154 0.543428,-1.75444 3.56835,-2.323 0.226884,-0.0426 0.253717,-0.0704 0.253717,-0.2629 0,-0.94207 -1.254922,-1.21716 -1.583662,-0.34717 l -0.106681,0.28232 H 74.94736 73.95658 l 0.04196,-0.3245 c 0.208993,-1.61456 2.053157,-2.45653 4.09384,-1.86905 1.434897,0.41309 1.5931,0.81086 1.620513,4.07415 l 0.02092,2.48955 h -0.985041 -0.985027 v -0.43586 -0.43587 l -0.41316,0.39592 c -0.629698,0.6034 -1.457517,0.78042 -2.386402,0.51031 z m 1.969295,-1.50537 c 0.568407,-0.25148 0.69496,-0.42135 0.69496,-0.93277 0,-0.25412 -0.02282,-0.46198 -0.05072,-0.46194 -0.276592,5.2e-4 -1.237439,0.24292 -1.366422,0.3447 -0.648841,0.51196 -0.04524,1.38954 0.722207,1.05001 z m 5.363321,1.48418 c -0.970123,-0.26851 -1.759098,-1.14788 -1.759098,-1.96064 0,-0.0323 0.466809,-0.0587 1.037353,-0.0587 h 1.037361 l 0.164103,0.26853 c 0.196878,0.32215 0.569974,0.48043 0.974924,0.41365 0.547883,-0.0903 0.733842,-0.39628 0.406599,-0.66885 -0.164211,-0.13677 -0.377465,-0.20459 -1.615192,-0.51372 -1.39028,-0.34722 -2.04354,-1.24159 -1.803017,-2.46844 0.488498,-2.49169 5.548763,-2.25944 5.548763,0.25466 0,0.12649 -0.06637,0.13504 -1.048693,0.13504 -0.869067,0 -1.048693,-0.0178 -1.048693,-0.10335 0,-0.4409 -0.863931,-0.70134 -1.213935,-0.36594 -0.405527,0.38861 -0.06255,0.65459 1.215889,0.94295 1.583604,0.35719 2.23541,0.94588 2.251905,2.03393 0.02484,1.64242 -2.028742,2.67755 -4.148269,2.09092 z m 5.846185,-5.9e-4 c -1.466151,-0.53666 -1.54426,-2.67234 -0.12466,-3.40839 0.294379,-0.15264 2.455843,-0.6877 2.778038,-0.6877 0.07059,0 0.01168,-0.53654 -0.07942,-0.72306 -0.281702,-0.57683 -1.242389,-0.45329 -1.461349,0.1879 l -0.08494,0.2486 h -0.997018 -0.997006 l 0.03574,-0.26866 c 0.173882,-1.30893 0.914666,-1.9314 2.459132,-2.06633 1.408908,-0.12308 2.566855,0.33507 3.010766,1.19125 l 0.202964,0.39148 0.02012,2.5612 0.02012,2.56119 h -0.984213 -0.984213 v -0.4453 -0.4453 l -0.35879,0.37519 c -0.611962,0.63995 -1.580307,0.84817 -2.455186,0.52792 z m 2.026091,-1.4722 c 0.571624,-0.2529 0.909382,-0.92131 0.665541,-1.3171 -0.14194,-0.23041 -1.429703,0.1531 -1.564281,0.46586 -0.282586,0.65673 0.233523,1.14554 0.89874,0.85124 z m 5.749897,1.53855 c -0.417401,-0.11348 -0.658743,-0.32414 -0.868385,-0.75804 l -0.203333,-0.42088 -0.02343,-1.883 -0.02343,-1.88299 -0.551631,-0.0207 -0.551633,-0.0208 -0.01911,-0.80598 -0.01911,-0.80595 h 0.575284 0.575274 l 0.01901,-0.91346 0.01882,-0.913439 h 1.04871 1.04868 l 0.01901,0.913439 0.01901,0.91346 h 0.606886 0.606888 v 0.82387 0.82388 h -0.608923 -0.608904 v 1.43638 c 0,1.87542 0.02343,1.9308 0.817422,1.9308 h 0.400405 v 0.71304 0.71305 l -0.25371,0.0822 c -0.313412,0.10144 -1.732555,0.15415 -2.02362,0.0751 z m 4.903539,-0.0451 c -0.80762,-0.27244 -0.942427,-0.69582 -0.985897,-3.09637 l -0.0328,-1.80896 h -0.533129 -0.533152 v -0.82388 -0.82388 h 0.539252 0.539239 l 0.0189,-0.91345 0.0189,-0.913435 h 1.048687 1.0487 l 0.0189,0.913435 0.019,0.91345 h 0.60689 0.60689 v 0.82388 0.82388 h -0.61272 -0.61272 l 0.0208,1.51082 0.0208,1.51081 0.18982,0.17278 c 0.15458,0.14066 0.26453,0.17274 0.592,0.17274 h 0.40218 v 0.71307 0.71305 l -0.25372,0.0842 c -0.40921,0.1358 -1.75454,0.15343 -2.12676,0.0279 z m -31.583597,-3.29161 v -3.26152 h 1.014861 1.014861 v 0.45994 0.45993 l 0.389702,-0.41263 c 0.39141,-0.41446 0.698014,-0.57509 1.318651,-0.69081 l 0.253709,-0.0473 v 1.19007 1.19006 l -0.524341,4e-4 c -1.27412,8.5e-4 -1.260433,-0.024 -1.302403,2.38907 l -0.03381,1.94485 -1.065606,0.0197 -1.065607,0.0198 z m 34.956367,3.21012 c -0.0248,-0.0263 -0.0451,-1.49312 -0.0451,-3.25969 v -3.21195 h 1.08252 1.08252 v 3.25971 3.25969 h -1.03741 c -0.57059,0 -1.05771,-0.0215 -1.08252,-0.0478 z m 0.59764,-7.50874 c -1.121,-0.553023 -0.86379,-2.267438 0.35724,-2.381314 0.78716,-0.07341 1.40887,0.68936 1.23393,1.51383 -0.15619,0.736014 -0.96444,1.176654 -1.59117,0.867484 z"
       id="path1083" />
  </g>
</svg>
